<svg xmlns="http://www.w3.org/2000/svg" width="1600" height="1000" viewBox="0 0 1600 1000"><defs><radialGradient id="g"><stop offset="0" stop-color="#cfd8ff" stop-opacity=".9"/><stop offset="1" stop-color="#cfd8ff" stop-opacity="0"/></radialGradient></defs><circle cx="0.5" cy="524.6" r="0.91" fill="#fff" fill-opacity="0.39"/><circle cx="314.1" cy="975.9" r="0.76" fill="#fff" fill-opacity="0.54"/><circle cx="171.3" cy="815.5" r="1.03" fill="#fff" fill-opacity="0.50"/><circle cx="395.9" cy="188.3" r="0.63" fill="#fff" fill-opacity="0.31"/><circle cx="855.1" cy="844.5" r="0.92" fill="#fff" fill-opacity="0.29"/><circle cx="209.6" cy="862.5" r="0.73" fill="#fff" fill-opacity="0.51"/><circle cx="373.6" cy="12.3" r="0.42" fill="#fff" fill-opacity="0.80"/><circle cx="1257.3" cy="570.8" r="0.94" fill="#fff" fill-opacity="0.59"/><circle cx="601.0" cy="267.1" r="0.65" fill="#fff" fill-opacity="0.60"/><circle cx="84.5" cy="528.7" r="0.51" fill="#fff" fill-opacity="0.50"/><circle cx="308.4" cy="64.7" r="1.09" fill="#fff" fill-opacity="0.55"/><circle cx="1589.3" cy="433.7" r="0.89" fill="#fff" fill-opacity="0.35"/><circle cx="1592.7" cy="190.0" r="0.88" fill="#fff" fill-opacity="0.47"/><circle cx="1195.2" cy="178.1" r="0.97" fill="#fff" fill-opacity="0.69"/><circle cx="47.5" cy="134.0" r="0.85" fill="#fff" fill-opacity="0.46"/><circle cx="810.8" cy="521.2" r="0.47" fill="#fff" fill-opacity="0.79"/><circle cx="1229.3" cy="265.3" r="0.87" fill="#fff" fill-opacity="0.75"/><circle cx="705.3" cy="921.4" r="0.73" fill="#fff" fill-opacity="0.79"/><circle cx="1270.7" cy="865.5" r="0.92" fill="#fff" fill-opacity="0.56"/><circle cx="850.0" cy="307.4" r="0.64" fill="#fff" fill-opacity="0.42"/><circle cx="906.8" cy="652.5" r="0.44" fill="#fff" fill-opacity="0.52"/><circle cx="15.2" cy="701.0" r="0.67" fill="#fff" fill-opacity="0.50"/><circle cx="200.2" cy="428.3" r="0.60" fill="#fff" fill-opacity="0.48"/><circle cx="585.1" cy="710.2" r="1.05" fill="#fff" fill-opacity="0.26"/><circle cx="1314.6" cy="532.7" r="0.49" fill="#fff" fill-opacity="0.47"/><circle cx="1299.9" cy="391.7" r="0.45" fill="#fff" fill-opacity="0.58"/><circle cx="405.8" cy="386.5" r="0.62" fill="#fff" fill-opacity="0.59"/><circle cx="455.1" cy="989.1" r="0.54" fill="#fff" fill-opacity="0.61"/><circle cx="1255.3" cy="127.2" r="0.65" fill="#fff" fill-opacity="0.37"/><circle cx="269.1" cy="956.4" r="0.91" fill="#fff" fill-opacity="0.57"/><circle cx="782.9" cy="366.0" r="0.61" fill="#fff" fill-opacity="0.46"/><circle cx="686.9" cy="321.9" r="0.65" fill="#fff" fill-opacity="0.31"/><circle cx="655.0" cy="10.1" r="0.65" fill="#fff" fill-opacity="0.55"/><circle cx="1392.5" cy="912.9" r="1.08" fill="#fff" fill-opacity="0.69"/><circle cx="815.9" cy="197.2" r="1.01" fill="#fff" fill-opacity="0.70"/><circle cx="550.8" cy="628.4" r="0.87" fill="#fff" fill-opacity="0.74"/><circle cx="1088.0" cy="996.6" r="1.08" fill="#fff" fill-opacity="0.32"/><circle cx="64.7" cy="542.9" r="0.52" fill="#fff" fill-opacity="0.53"/><circle cx="1268.8" cy="250.1" r="0.55" fill="#fff" fill-opacity="0.44"/><circle cx="662.9" cy="957.4" r="0.80" fill="#fff" fill-opacity="0.50"/><circle cx="1499.5" cy="492.7" r="0.72" fill="#fff" fill-opacity="0.30"/><circle cx="242.0" cy="571.9" r="0.82" fill="#fff" fill-opacity="0.44"/><circle cx="355.4" cy="815.8" r="0.74" fill="#fff" fill-opacity="0.61"/><circle cx="91.2" cy="630.3" r="0.87" fill="#fff" fill-opacity="0.33"/><circle cx="341.3" cy="49.5" r="0.72" fill="#fff" fill-opacity="0.66"/><circle cx="857.0" cy="42.5" r="0.85" fill="#fff" fill-opacity="0.46"/><circle cx="587.3" cy="380.8" r="0.99" fill="#fff" fill-opacity="0.72"/><circle cx="885.2" cy="52.3" r="0.91" fill="#fff" fill-opacity="0.39"/><circle cx="37.1" cy="468.5" r="0.85" fill="#fff" fill-opacity="0.73"/><circle cx="1414.1" cy="962.9" r="0.72" fill="#fff" fill-opacity="0.51"/><circle cx="40.0" cy="36.9" r="0.74" fill="#fff" fill-opacity="0.55"/><circle cx="871.0" cy="664.8" r="0.81" fill="#fff" fill-opacity="0.59"/><circle cx="1239.5" cy="805.7" r="1.08" fill="#fff" fill-opacity="0.49"/><circle cx="707.2" cy="981.8" r="1.08" fill="#fff" fill-opacity="0.47"/><circle cx="1585.1" cy="796.9" r="0.66" fill="#fff" fill-opacity="0.42"/><circle cx="1487.2" cy="628.4" r="1.05" fill="#fff" fill-opacity="0.66"/><circle cx="234.6" cy="475.3" r="0.44" fill="#fff" fill-opacity="0.41"/><circle cx="685.6" cy="731.1" r="0.91" fill="#fff" fill-opacity="0.38"/><circle cx="1265.4" cy="624.7" r="0.75" fill="#fff" fill-opacity="0.69"/><circle cx="430.0" cy="215.2" r="0.86" fill="#fff" fill-opacity="0.38"/><circle cx="387.5" cy="623.5" r="0.48" fill="#fff" fill-opacity="0.58"/><circle cx="200.2" cy="534.3" r="0.67" fill="#fff" fill-opacity="0.47"/><circle cx="44.8" cy="97.2" r="0.58" fill="#fff" fill-opacity="0.63"/><circle cx="840.9" cy="7.9" r="0.95" fill="#fff" fill-opacity="0.46"/><circle cx="251.5" cy="387.1" r="0.43" fill="#fff" fill-opacity="0.40"/><circle cx="318.4" cy="51.0" r="0.89" fill="#fff" fill-opacity="0.67"/><circle cx="1394.2" cy="549.5" r="0.75" fill="#fff" fill-opacity="0.67"/><circle cx="462.3" cy="730.3" r="0.60" fill="#fff" fill-opacity="0.54"/><circle cx="343.9" cy="402.0" r="0.81" fill="#fff" fill-opacity="0.58"/><circle cx="1087.4" cy="349.3" r="0.74" fill="#fff" fill-opacity="0.53"/><circle cx="1152.2" cy="776.9" r="1.01" fill="#fff" fill-opacity="0.49"/><circle cx="506.5" cy="144.1" r="0.71" fill="#fff" fill-opacity="0.66"/><circle cx="1324.8" cy="627.9" r="0.76" fill="#fff" fill-opacity="0.25"/><circle cx="879.4" cy="197.8" r="0.92" fill="#fff" fill-opacity="0.45"/><circle cx="238.4" cy="141.6" r="0.62" fill="#fff" fill-opacity="0.76"/><circle cx="1107.0" cy="728.7" r="0.64" fill="#fff" fill-opacity="0.50"/><circle cx="1031.0" cy="218.5" r="0.92" fill="#fff" fill-opacity="0.61"/><circle cx="285.9" cy="819.0" r="0.65" fill="#fff" fill-opacity="0.72"/><circle cx="1417.1" cy="360.5" r="0.63" fill="#fff" fill-opacity="0.40"/><circle cx="1241.8" cy="807.7" r="0.99" fill="#fff" fill-opacity="0.45"/><circle cx="323.7" cy="328.2" r="0.88" fill="#fff" fill-opacity="0.69"/><circle cx="1235.4" cy="269.2" r="0.83" fill="#fff" fill-opacity="0.70"/><circle cx="628.2" cy="359.5" r="1.02" fill="#fff" fill-opacity="0.57"/><circle cx="514.7" cy="966.7" r="0.91" fill="#fff" fill-opacity="0.47"/><circle cx="200.5" cy="67.8" r="0.54" fill="#fff" fill-opacity="0.71"/><circle cx="500.9" cy="9.6" r="0.41" fill="#fff" fill-opacity="0.37"/><circle cx="974.3" cy="909.3" r="0.69" fill="#fff" fill-opacity="0.50"/><circle cx="111.4" cy="960.1" r="0.56" fill="#fff" fill-opacity="0.72"/><circle cx="318.8" cy="36.3" r="0.77" fill="#fff" fill-opacity="0.54"/><circle cx="232.5" cy="880.9" r="1.04" fill="#fff" fill-opacity="0.67"/><circle cx="831.5" cy="289.2" r="0.55" fill="#fff" fill-opacity="0.29"/><circle cx="320.4" cy="918.6" r="1.02" fill="#fff" fill-opacity="0.56"/><circle cx="236.8" cy="712.4" r="0.59" fill="#fff" fill-opacity="0.77"/><circle cx="1564.4" cy="72.1" r="1.07" fill="#fff" fill-opacity="0.74"/><circle cx="1239.0" cy="972.9" r="0.58" fill="#fff" fill-opacity="0.47"/><circle cx="224.2" cy="465.3" r="1.01" fill="#fff" fill-opacity="0.67"/><circle cx="308.4" cy="880.5" r="0.57" fill="#fff" fill-opacity="0.46"/><circle cx="506.2" cy="229.3" r="0.75" fill="#fff" fill-opacity="0.31"/><circle cx="1597.0" cy="468.6" r="0.55" fill="#fff" fill-opacity="0.60"/><circle cx="843.9" cy="684.0" r="0.62" fill="#fff" fill-opacity="0.60"/><circle cx="1436.2" cy="601.6" r="0.71" fill="#fff" fill-opacity="0.70"/><circle cx="1550.3" cy="252.4" r="0.90" fill="#fff" fill-opacity="0.25"/><circle cx="396.3" cy="864.6" r="0.63" fill="#fff" fill-opacity="0.30"/><circle cx="1205.9" cy="928.9" r="0.62" fill="#fff" fill-opacity="0.72"/><circle cx="877.7" cy="805.3" r="0.70" fill="#fff" fill-opacity="0.66"/><circle cx="66.5" cy="645.1" r="0.97" fill="#fff" fill-opacity="0.65"/><circle cx="998.9" cy="197.9" r="0.85" fill="#fff" fill-opacity="0.51"/><circle cx="1133.1" cy="954.1" r="0.54" fill="#fff" fill-opacity="0.31"/><circle cx="1189.9" cy="417.8" r="0.64" fill="#fff" fill-opacity="0.51"/><circle cx="1189.7" cy="969.0" r="0.56" fill="#fff" fill-opacity="0.59"/><circle cx="219.4" cy="391.2" r="0.64" fill="#fff" fill-opacity="0.40"/><circle cx="332.0" cy="659.2" r="0.48" fill="#fff" fill-opacity="0.73"/><circle cx="783.4" cy="706.3" r="0.99" fill="#fff" fill-opacity="0.34"/><circle cx="141.1" cy="684.8" r="0.51" fill="#fff" fill-opacity="0.30"/><circle cx="380.0" cy="885.7" r="0.45" fill="#fff" fill-opacity="0.29"/><circle cx="496.1" cy="780.4" r="0.68" fill="#fff" fill-opacity="0.60"/><circle cx="283.2" cy="916.9" r="1.00" fill="#fff" fill-opacity="0.72"/><circle cx="1007.4" cy="425.9" r="0.91" fill="#fff" fill-opacity="0.35"/><circle cx="1087.6" cy="594.7" r="0.60" fill="#fff" fill-opacity="0.47"/><circle cx="67.5" cy="510.6" r="0.99" fill="#fff" fill-opacity="0.63"/><circle cx="1446.9" cy="739.7" r="0.71" fill="#fff" fill-opacity="0.37"/><circle cx="1297.2" cy="24.3" r="0.58" fill="#fff" fill-opacity="0.58"/><circle cx="619.2" cy="671.4" r="0.94" fill="#fff" fill-opacity="0.80"/><circle cx="1426.2" cy="427.1" r="0.94" fill="#fff" fill-opacity="0.42"/><circle cx="271.8" cy="44.0" r="0.87" fill="#fff" fill-opacity="0.49"/><circle cx="526.1" cy="633.3" r="0.99" fill="#fff" fill-opacity="0.56"/><circle cx="1195.6" cy="534.2" r="0.46" fill="#fff" fill-opacity="0.77"/><circle cx="976.3" cy="722.3" r="0.70" fill="#fff" fill-opacity="0.30"/><circle cx="1438.6" cy="860.0" r="0.86" fill="#fff" fill-opacity="0.33"/><circle cx="395.3" cy="744.5" r="0.44" fill="#fff" fill-opacity="0.63"/><circle cx="793.6" cy="527.4" r="0.91" fill="#fff" fill-opacity="0.49"/><circle cx="87.4" cy="788.5" r="1.06" fill="#fff" fill-opacity="0.57"/><circle cx="1136.2" cy="330.0" r="1.07" fill="#fff" fill-opacity="0.43"/><circle cx="101.3" cy="181.6" r="0.77" fill="#fff" fill-opacity="0.68"/><circle cx="1099.1" cy="309.6" r="1.08" fill="#fff" fill-opacity="0.59"/><circle cx="170.0" cy="27.3" r="0.41" fill="#fff" fill-opacity="0.79"/><circle cx="1235.2" cy="871.1" r="0.43" fill="#fff" fill-opacity="0.29"/><circle cx="1460.4" cy="607.9" r="0.59" fill="#fff" fill-opacity="0.47"/><circle cx="982.9" cy="779.6" r="1.10" fill="#fff" fill-opacity="0.32"/><circle cx="511.9" cy="339.4" r="0.41" fill="#fff" fill-opacity="0.30"/><circle cx="1041.6" cy="54.5" r="0.96" fill="#fff" fill-opacity="0.25"/><circle cx="856.2" cy="351.1" r="0.47" fill="#fff" fill-opacity="0.64"/><circle cx="268.6" cy="926.7" r="0.73" fill="#fff" fill-opacity="0.51"/><circle cx="802.5" cy="84.7" r="0.52" fill="#fff" fill-opacity="0.29"/><circle cx="448.9" cy="425.3" r="0.79" fill="#fff" fill-opacity="0.49"/><circle cx="438.1" cy="116.6" r="0.71" fill="#fff" fill-opacity="0.33"/><circle cx="698.1" cy="619.2" r="0.70" fill="#fff" fill-opacity="0.67"/><circle cx="448.9" cy="406.7" r="1.02" fill="#fff" fill-opacity="0.45"/><circle cx="1417.8" cy="650.6" r="0.84" fill="#fff" fill-opacity="0.52"/><circle cx="1074.1" cy="34.7" r="0.95" fill="#fff" fill-opacity="0.56"/><circle cx="323.6" cy="309.3" r="0.80" fill="#fff" fill-opacity="0.29"/><circle cx="3.4" cy="286.4" r="0.51" fill="#fff" fill-opacity="0.52"/><circle cx="532.2" cy="525.0" r="0.53" fill="#fff" fill-opacity="0.36"/><circle cx="755.5" cy="476.7" r="0.97" fill="#fff" fill-opacity="0.37"/><circle cx="536.7" cy="73.7" r="0.67" fill="#fff" fill-opacity="0.53"/><circle cx="1476.2" cy="313.6" r="0.86" fill="#fff" fill-opacity="0.49"/><circle cx="1300.1" cy="702.4" r="0.70" fill="#fff" fill-opacity="0.40"/><circle cx="1576.9" cy="115.6" r="0.97" fill="#fff" fill-opacity="0.42"/><circle cx="1519.6" cy="526.0" r="0.54" fill="#fff" fill-opacity="0.64"/><circle cx="1361.8" cy="342.0" r="0.52" fill="#fff" fill-opacity="0.27"/><circle cx="1179.6" cy="933.0" r="0.53" fill="#fff" fill-opacity="0.60"/><circle cx="1037.1" cy="345.2" r="0.47" fill="#fff" fill-opacity="0.29"/><circle cx="1026.6" cy="354.2" r="0.72" fill="#fff" fill-opacity="0.80"/><circle cx="1537.7" cy="211.3" r="0.54" fill="#fff" fill-opacity="0.76"/><circle cx="1319.6" cy="920.5" r="0.47" fill="#fff" fill-opacity="0.68"/><circle cx="808.7" cy="50.0" r="0.64" fill="#fff" fill-opacity="0.60"/><circle cx="1414.5" cy="313.1" r="0.88" fill="#fff" fill-opacity="0.61"/><circle cx="690.8" cy="749.0" r="1.00" fill="#fff" fill-opacity="0.29"/><circle cx="180.9" cy="226.5" r="0.41" fill="#fff" fill-opacity="0.28"/><circle cx="1594.9" cy="420.6" r="1.09" fill="#fff" fill-opacity="0.47"/></svg>
