<svg xmlns="http://www.w3.org/2000/svg" width="1600" height="1000" viewBox="0 0 1600 1000"><defs><radialGradient id="g"><stop offset="0" stop-color="#cfd8ff" stop-opacity=".9"/><stop offset="1" stop-color="#cfd8ff" stop-opacity="0"/></radialGradient></defs><circle cx="15.5" cy="317.6" r="4.0" fill="url(#g)" opacity="0.99"/><circle cx="15.5" cy="317.6" r="1.13" fill="#fff" fill-opacity="0.99"/><circle cx="313.0" cy="53.1" r="4.8" fill="url(#g)" opacity="0.78"/><circle cx="313.0" cy="53.1" r="1.38" fill="#fff" fill-opacity="0.78"/><circle cx="386.5" cy="959.8" r="1.13" fill="#fff" fill-opacity="0.90"/><circle cx="1040.1" cy="198.3" r="4.2" fill="url(#g)" opacity="0.74"/><circle cx="1040.1" cy="198.3" r="1.20" fill="#fff" fill-opacity="0.74"/><circle cx="284.3" cy="477.5" r="5.0" fill="url(#g)" opacity="0.75"/><circle cx="284.3" cy="477.5" r="1.44" fill="#fff" fill-opacity="0.75"/><circle cx="368.2" cy="484.7" r="5.4" fill="url(#g)" opacity="0.80"/><circle cx="368.2" cy="484.7" r="1.55" fill="#fff" fill-opacity="0.80"/><circle cx="537.4" cy="552.4" r="5.2" fill="url(#g)" opacity="0.87"/><circle cx="537.4" cy="552.4" r="1.49" fill="#fff" fill-opacity="0.87"/><circle cx="65.7" cy="676.0" r="1.13" fill="#fff" fill-opacity="0.98"/><circle cx="1353.6" cy="467.1" r="1.41" fill="#fff" fill-opacity="0.89"/><circle cx="1111.0" cy="437.2" r="1.38" fill="#fff" fill-opacity="0.86"/><circle cx="1367.3" cy="521.0" r="4.0" fill="url(#g)" opacity="0.77"/><circle cx="1367.3" cy="521.0" r="1.13" fill="#fff" fill-opacity="0.77"/><circle cx="751.8" cy="362.5" r="1.37" fill="#fff" fill-opacity="0.99"/><circle cx="547.1" cy="581.3" r="0.88" fill="#fff" fill-opacity="0.91"/><circle cx="907.6" cy="422.3" r="5.5" fill="url(#g)" opacity="0.86"/><circle cx="907.6" cy="422.3" r="1.57" fill="#fff" fill-opacity="0.86"/><circle cx="1396.1" cy="31.4" r="1.54" fill="#fff" fill-opacity="0.90"/><circle cx="201.8" cy="169.3" r="5.0" fill="url(#g)" opacity="0.91"/><circle cx="201.8" cy="169.3" r="1.44" fill="#fff" fill-opacity="0.91"/><circle cx="842.5" cy="700.9" r="4.4" fill="url(#g)" opacity="0.87"/><circle cx="842.5" cy="700.9" r="1.26" fill="#fff" fill-opacity="0.87"/><circle cx="1370.5" cy="501.1" r="3.3" fill="url(#g)" opacity="0.80"/><circle cx="1370.5" cy="501.1" r="0.93" fill="#fff" fill-opacity="0.80"/><circle cx="1220.0" cy="1.1" r="3.2" fill="url(#g)" opacity="0.81"/><circle cx="1220.0" cy="1.1" r="0.92" fill="#fff" fill-opacity="0.81"/><circle cx="1506.0" cy="507.7" r="1.14" fill="#fff" fill-opacity="0.80"/><circle cx="53.0" cy="410.0" r="1.14" fill="#fff" fill-opacity="0.72"/><circle cx="675.3" cy="168.7" r="5.0" fill="url(#g)" opacity="0.85"/><circle cx="675.3" cy="168.7" r="1.43" fill="#fff" fill-opacity="0.85"/><circle cx="1464.3" cy="393.1" r="3.8" fill="url(#g)" opacity="0.75"/><circle cx="1464.3" cy="393.1" r="1.09" fill="#fff" fill-opacity="0.75"/><circle cx="123.0" cy="153.1" r="1.23" fill="#fff" fill-opacity="0.99"/><circle cx="451.3" cy="841.8" r="4.8" fill="url(#g)" opacity="0.77"/><circle cx="451.3" cy="841.8" r="1.36" fill="#fff" fill-opacity="0.77"/><circle cx="1467.8" cy="365.3" r="0.84" fill="#fff" fill-opacity="0.77"/><circle cx="874.4" cy="640.4" r="4.2" fill="url(#g)" opacity="0.93"/><circle cx="874.4" cy="640.4" r="1.21" fill="#fff" fill-opacity="0.93"/><circle cx="724.9" cy="680.4" r="2.9" fill="url(#g)" opacity="0.88"/><circle cx="724.9" cy="680.4" r="0.84" fill="#fff" fill-opacity="0.88"/></svg>
